<?xml version="1.0" encoding="iso-8859-1"?>
<!-- Generator: Adobe Illustrator 19.0.0, SVG Export Plug-In . SVG Version: 6.00 Build 0)  -->
<!-- License: CC0. Made by SVG Repo: https://www.svgrepo.com/svg/246506/shield -->
<svg version="1.1" id="Layer_1" xmlns="http://www.w3.org/2000/svg" xmlns:xlink="http://www.w3.org/1999/xlink" x="0px" y="0px"
	 viewBox="0 0 512 512" style="enable-background:new 0 0 512 512;" xml:space="preserve">
<g>
	<g>
		<path d="M465.239,0H256H46.76C36.577,0,28.321,8.255,28.321,18.439V256v29.916c0,80.687,48.152,152.814,122.673,183.749
			l98.589,40.927c1.79,0.744,3.669,1.18,5.566,1.335c0.501,0.041,1.002,0.073,1.504,0.073c2.417,0,4.834-0.475,7.106-1.425
			l97.653-40.792c74.273-31.026,122.268-103.085,122.268-183.579v-30.419V18.439C483.679,8.255,475.423,0,465.239,0z M446.8,286.204
			c0,65.573-39.096,124.276-99.602,149.551l-90.568,37.832l-1.482-0.616V256H65.198V36.877h190.801v218.908H446.8V286.204z"/>
	</g>
</g>
</svg>
